# xmcd
#
# Track frame offsets: 
#        150
#        19028
#        37029
#        57524
#        78320
#        99293
#        117074
#        140755
#        162589
#        175953
#        194656
#        212206
#
# Disc length: 3046 seconds
#
# Revision: 0
# Processed by: cddbd v1.5.2PL0 Copyright (c) Steve Scherf et al.
# Submitted via: ExactAudioCopy v0.99pb5
#
DISCID=ac0be40c
DTITLE=Various Artist - Sunday In The Country
DYEAR=2010
DGENRE=Country
TTITLE0=Josh Turner - Long Black Train
TTITLE1=Diamond Rio - I Believe
TTITLE2=Keith Urban - But For The Grace Of God
TTITLE3=Martina McBride - Blessed
TTITLE4=Tim McGraw - Drugs Or Jesus
TTITLE5=Trace Adkins - Muddy Water
TTITLE6=Vince Gill - Go Rest High On That Mountain
TTITLE7=Steve Wariner - Holes In The Floor Of Heaven
TTITLE8=Tracy Lawrence - Up To Him
TTITLE9=Alabama - Angels Among Us
TTITLE10=Lee Ann Womack - Get Up In Jesus' Name
TTITLE11=George Strait - I Found Jesus On The Jailhouse Floor
EXTD=
EXTT0=
EXTT1=
EXTT2=
EXTT3=
EXTT4=
EXTT5=
EXTT6=
EXTT7=
EXTT8=
EXTT9=
EXTT10=
EXTT11=
PLAYORDER=
